<svg xmlns="http://www.w3.org/2000/svg" version="1.1" xmlns:xlink="http://www.w3.org/1999/xlink" xmlns:svgjs="http://svgjs.dev/svgjs" width="2000" height="1247" viewBox="0 0 2000 1247"><g transform="matrix(1,0,0,1,-1.2121212121212466,0.5048712226099497)"><svg viewBox="0 0 396 247" data-background-color="#fffcea" preserveAspectRatio="xMidYMid meet" height="1247" width="2000" xmlns="http://www.w3.org/2000/svg" xmlns:xlink="http://www.w3.org/1999/xlink"><g id="tight-bounds" transform="matrix(1,0,0,1,0.2400000000000091,-0.09999999999999432)"><svg viewBox="0 0 395.52 247.2" height="247.2" width="395.52"><g><svg></svg></g><g><svg viewBox="0 0 395.52 247.2" height="247.2" width="395.52"><g><g><path d="M265.893 34.066c1.165-1.941 2.485-3.261 3.96-3.959 1.436-0.66 2.931-0.99 4.484-0.99h4.95c2.718 0 4.717 0.718 5.998 2.154 1.242 1.475 1.863 3.766 1.863 6.872v39.928h-2.912v-39.928c0-1.553-0.33-2.97-0.99-4.251-0.699-1.242-2.019-1.863-3.959-1.864h-4.368c-1.359 0-2.523 0.194-3.494 0.583-0.971 0.388-2.038 1.553-3.203 3.494l-27.826 41.966-3.367 0zM287.148 186.346h-2.912l0-17.217 2.912 0zM162.82 36.105c-1.165-1.941-2.271-3.106-3.319-3.494-1.087-0.388-2.31-0.582-3.669-0.583h-4.367c-1.941 0-3.203 0.621-3.786 1.864-0.582 1.281-0.874 2.698-0.873 4.251v39.928h-2.912v-39.928c0-3.106 0.641-5.396 1.922-6.872 1.242-1.436 3.125-2.155 5.649-2.154h4.949c1.553 0 3.106 0.33 4.659 0.99 1.553 0.699 2.912 2.019 4.076 3.959l28.864 44.005h-3.367zM146.806 186.346h-2.912v-17.217l2.912 0zM166.896 212.551c3.688 0 6.367-0.835 8.037-2.504 1.631-1.631 2.446-4.29 2.445-7.978l0-32.94h21.718l-2.501 2.077c-1.553 1.359-3.339 2.368-5.357 3.028-2.058 0.699-4.445 1.048-7.163 1.048h-3.785v26.787c0 2.523-0.33 4.659-0.99 6.406-0.699 1.747-1.728 3.203-3.086 4.367l-37.852 31.446c-0.776 0.776-1.98 1.456-3.61 2.039-1.669 0.582-3.475 0.874-5.416 0.873h-43.384c-4.659 0-8.056-1.068-10.191-3.203-2.135-2.135-3.203-5.532-3.202-10.191v-64.677l40.472 0 0 32.94c0 3.688 0.835 6.347 2.504 7.978 1.631 1.669 4.29 2.504 7.978 2.504zM254.246 202.069c0 3.688 0.835 6.347 2.504 7.978 1.631 1.669 4.29 2.504 7.978 2.504h44.84c3.688 0 6.367-0.835 8.036-2.504 1.631-1.631 2.446-4.29 2.446-7.978l0-32.94 2.911 0v32.94c0 2.523-0.33 4.659-0.99 6.406-0.699 1.747-1.728 3.203-3.086 4.367l-37.851 31.446c-0.776 0.776-1.98 1.456-3.611 2.039-1.669 0.582-3.475 0.874-5.416 0.873h-44.839c-4.853 0-8.289-1.068-10.308-3.203-2.058-2.135-3.086-5.532-3.086-10.191v-64.677h40.472zM320.05 13.394c0-3.688-0.815-6.367-2.446-8.037-1.669-1.631-4.348-2.446-8.036-2.445h-47.169c-3.106 0-5.687 0.679-7.745 2.038-2.019 1.359-3.902 3.591-5.649 6.697l-25.914 47.46c-0.971 1.747-1.786 3.009-2.445 3.785-0.699 0.776-1.631 1.165-2.796 1.165h-2.62c-1.165 0-2.077-0.388-2.737-1.165-0.699-0.776-1.533-2.038-2.504-3.785l-26.205-47.46c-1.747-3.106-3.63-5.338-5.649-6.697-2.058-1.359-4.639-2.038-7.745-2.038h-46.877c-3.688 0-6.347 0.815-7.978 2.445-1.669 1.669-2.504 4.348-2.504 8.037l0 64.677-40.472 0v-32.94c0-2.523 0.349-4.659 1.048-6.406 0.66-1.747 1.669-3.203 3.028-4.367l37.56-31.738c0.971-0.776 2.291-1.417 3.96-1.921 1.631-0.466 3.416-0.699 5.358-0.699h46.877c3.688 0 6.755 0.776 9.201 2.329 2.407 1.553 4.678 4.173 6.814 7.862l19.799 36.396 2.62-4.659c0.776-1.359 1.611-2.679 2.504-3.96 0.854-1.242 1.766-2.252 2.737-3.028l37.561-31.446c1.553-1.165 3.164-2.038 4.833-2.621 1.631-0.582 3.61-0.874 5.94-0.873h47.169c4.659 0 8.056 1.068 10.191 3.203 2.135 2.135 3.203 5.532 3.202 10.191v64.677l-2.911 0z" fill="#729343" fill-rule="nonzero" stroke="none" stroke-width="1" stroke-linecap="butt" stroke-linejoin="miter" stroke-miterlimit="10" stroke-dasharray="" stroke-dashoffset="0" font-family="none" font-weight="none" font-size="none" text-anchor="none" style="mix-blend-mode: normal" data-fill-palette-color="tertiary"></path></g></g><g transform="matrix(1,0,0,1,0,88.35687657430731)"><svg viewBox="0 0 395.52 70.48624685138539" height="70.48624685138539" width="395.52"><g><svg viewBox="0 0 395.52 70.48624685138539" height="70.48624685138539" width="395.52"><g><svg viewBox="0 0 395.52 70.48624685138539" height="70.48624685138539" width="395.52"><g><svg viewBox="0 0 395.52 70.48624685138539" height="70.48624685138539" width="395.52"><g><svg viewBox="0 0 395.52 70.48624685138539" height="70.48624685138539" width="395.52"><g><svg viewBox="0 0 395.52 70.48624685138539" height="70.48624685138539" width="395.52"><g transform="matrix(1,0,0,1,0,0)"><svg width="395.52" viewBox="2.25 -36.5 238.19 42.45" height="70.48624685138539" data-palette-color="#729343"><path d="M26.8-19.25L26.8-19.25Q27.7-19.25 28.1-19.65 28.5-20.05 29.35-21.35L29.35-21.35 35.45-30.65Q35.75-31.15 36.13-31.33 36.5-31.5 36.9-31.5L36.9-31.5 37.75-31.5Q38.45-31.5 38.78-31.13 39.1-30.75 39.1-29.95L39.1-29.95 39.1-4.5 38.6-4.5 38.6-29.95Q38.6-30.35 38.43-30.68 38.25-31 37.75-31L37.75-31 37-31Q36.65-31 36.4-30.9 36.15-30.8 35.85-30.3L35.85-30.3 29.75-21.1Q28.85-19.75 28.38-19.25 27.9-18.75 26.8-18.75L26.8-18.75Q25.7-18.75 25.23-19.25 24.75-19.75 23.85-21.1L23.85-21.1 17.75-30.3Q17.45-30.8 17.18-30.9 16.9-31 16.55-31L16.55-31 15.8-31Q15.3-31 15.15-30.68 15-30.35 15-29.95L15-29.95 15-4.5 14.5-4.5 14.5-29.95Q14.5-30.75 14.83-31.13 15.15-31.5 15.8-31.5L15.8-31.5 16.65-31.5Q17.05-31.5 17.45-31.33 17.85-31.15 18.15-30.65L18.15-30.65 24.25-21.35Q25.1-20.05 25.5-19.65 25.9-19.25 26.8-19.25ZM11 0L18.45 0Q19.4 0 19.83-0.43 20.25-0.85 20.25-1.8L20.25-1.8 20.25-19.4 23.2-13.95Q23.65-13.1 24.28-12.73 24.9-12.35 25.85-12.35L25.85-12.35 27.85-12.35Q28.8-12.35 29.43-12.73 30.05-13.1 30.5-13.95L30.5-13.95 33.45-19.4 33.45-1.8Q33.45-0.85 33.88-0.43 34.3 0 35.25 0L35.25 0 42.95 0Q43.9 0 44.33-0.43 44.75-0.85 44.75-1.8L44.75-1.8 44.75-34.2Q44.75-35.15 44.33-35.58 43.9-36 42.95-36L42.95-36 34.85-36Q34.05-36 33.52-35.65 33-35.3 32.55-34.5L32.55-34.5 28.1-26.35Q27.85-25.9 27.68-25.7 27.5-25.5 27.2-25.5L27.2-25.5 26.75-25.5Q26.45-25.5 26.28-25.7 26.1-25.9 25.85-26.35L25.85-26.35 21.35-34.5Q20.9-35.3 20.38-35.65 19.85-36 19.05-36L19.05-36 11-36Q10.05-36 9.63-35.58 9.2-35.15 9.2-34.2L9.2-34.2 9.2-1.8Q9.2-0.85 9.63-0.43 10.05 0 11 0L11 0ZM20.05 0.05L20.05 0.05 13.55 5.45Q13.35 5.65 12.93 5.8 12.5 5.95 12 5.95L12 5.95 4.55 5.95Q3.35 5.95 2.8 5.4 2.25 4.85 2.25 3.65L2.25 3.65 2.25-28.75Q2.25-29.4 2.43-29.85 2.6-30.3 2.95-30.6L2.95-30.6 9.4-36.05Q9.65-36.25 10.08-36.38 10.5-36.5 11-36.5L11-36.5 19.05-36.5Q20-36.5 20.63-36.1 21.25-35.7 21.8-34.75L21.8-34.75 25.2-28.5 25.65-29.3Q25.85-29.65 26.08-29.98 26.3-30.3 26.55-30.5L26.55-30.5 33-35.9Q33.4-36.2 33.83-36.35 34.25-36.5 34.85-36.5L34.85-36.5 42.95-36.5Q44.15-36.5 44.7-35.95 45.25-35.4 45.25-34.2L45.25-34.2 45.25-1.8Q45.25-1.15 45.08-0.7 44.9-0.25 44.55 0.05L44.55 0.05 38.05 5.45Q37.85 5.65 37.43 5.8 37 5.95 36.5 5.95L36.5 5.95 28.8 5.95Q27.55 5.95 27.03 5.4 26.5 4.85 26.5 3.65L26.5 3.65 26.5-9.55 23.55-7.1Q23.15-6.75 22.63-6.58 22.1-6.4 21.4-6.4L21.4-6.4 20.75-6.4 20.75-1.8Q20.75-1.15 20.58-0.7 20.4-0.25 20.05 0.05ZM72.5 5.95L72.5 5.95 51.2 5.95Q50 5.95 49.45 5.4 48.9 4.85 48.9 3.65L48.9 3.65 48.9-2.3Q48.9-2.95 49.07-3.4 49.25-3.85 49.6-4.15L49.6-4.15 55.65-9.25 55.65-20.4 51.2-20.4Q50-20.4 49.45-20.95 48.9-21.5 48.9-22.7L48.9-22.7 48.9-28.75Q48.9-29.4 49.07-29.85 49.25-30.3 49.6-30.6L49.6-30.6 56.05-36.05Q56.3-36.25 56.72-36.38 57.15-36.5 57.65-36.5L57.65-36.5 78.95-36.5Q80.15-36.5 80.7-35.95 81.25-35.4 81.25-34.2L81.25-34.2 81.25-28.15Q81.25-27.5 81.07-27.05 80.9-26.6 80.55-26.3L80.55-26.3 74.6-21.3 74.6-10.05 78.95-10.05Q80.15-10.05 80.7-9.5 81.25-8.95 81.25-7.75L81.25-7.75 81.25-1.8Q81.25-1.15 81.07-0.7 80.9-0.25 80.55 0.05L80.55 0.05 74.05 5.45Q73.85 5.65 73.42 5.8 73 5.95 72.5 5.95ZM57.65 0L57.65 0 78.95 0Q79.9 0 80.32-0.43 80.75-0.85 80.75-1.8L80.75-1.8 80.75-7.75Q80.75-8.7 80.32-9.13 79.9-9.55 78.95-9.55L78.95-9.55 74.1-9.55 74.1-26.35 78.95-26.35Q79.9-26.35 80.32-26.78 80.75-27.2 80.75-28.15L80.75-28.15 80.75-34.2Q80.75-35.15 80.32-35.58 79.9-36 78.95-36L78.95-36 57.65-36Q56.7-36 56.27-35.58 55.85-35.15 55.85-34.2L55.85-34.2 55.85-28.15Q55.85-27.2 56.27-26.78 56.7-26.35 57.65-26.35L57.65-26.35 62.6-26.35 62.6-9.55 57.65-9.55Q56.7-9.55 56.27-9.13 55.85-8.7 55.85-7.75L55.85-7.75 55.85-1.8Q55.85-0.85 56.27-0.43 56.7 0 57.65 0ZM76.25-5L76.25-4.5 60.35-4.5 60.35-5 68.1-5 68.1-31 60.35-31 60.35-31.5 76.25-31.5 76.25-31 68.6-31 68.6-5 76.25-5ZM102.15 5.95L86.35 5.95Q85.15 5.95 84.6 5.4 84.05 4.85 84.05 3.65L84.05 3.65 84.05-2.2Q84.05-2.85 84.22-3.3 84.4-3.75 84.75-4.05L84.75-4.05 89.75-8.25Q87.1-9.05 85.57-10.98 84.05-12.9 84.05-16.5L84.05-16.5 84.05-21.75Q84.05-24 84.8-25.75 85.55-27.5 86.95-28.7L86.95-28.7 93.45-34.15Q94.8-35.25 96.8-35.88 98.8-36.5 101.35-36.5L101.35-36.5 115.34-36.5Q116.55-36.5 117.09-35.95 117.65-35.4 117.65-34.2L117.65-34.2 117.65-28.25Q117.65-27.6 117.47-27.15 117.3-26.7 116.95-26.4L116.95-26.4 112.45-22.65Q115.59-21.95 117.52-20.03 119.45-18.1 119.45-14.05L119.45-14.05 119.45-8.8Q119.45-6.55 118.7-4.8 117.95-3.05 116.5-1.85L116.5-1.85 110.05 3.55Q108.65 4.7 106.65 5.33 104.65 5.95 102.15 5.95L102.15 5.95ZM92.8 0L108.6 0Q113.4 0 116.17-2.27 118.95-4.55 118.95-8.8L118.95-8.8 118.95-14.05Q118.95-18.25 116.8-20.05 114.65-21.85 111.15-22.35L111.15-22.35 103.7-23.35Q103.05-23.4 102.7-23.85 102.35-24.3 102.35-24.95L102.35-24.95Q102.35-25.6 102.7-26.03 103.05-26.45 103.7-26.45L103.7-26.45 115.34-26.45Q116.3-26.45 116.72-26.88 117.15-27.3 117.15-28.25L117.15-28.25 117.15-34.2Q117.15-35.15 116.72-35.58 116.3-36 115.34-36L115.34-36 101.35-36Q96.5-36 93.75-33.73 91-31.45 91-27.2L91-27.2 91-21.95Q91-17.75 93.12-15.95 95.25-14.15 98.75-13.65L98.75-13.65 106.25-12.6Q106.9-12.55 107.22-12.15 107.55-11.75 107.55-10.9L107.55-10.9Q107.55-10.3 107.22-9.88 106.9-9.45 106.25-9.45L106.25-9.45 92.8-9.45Q91.85-9.45 91.42-9.03 91-8.6 91-7.65L91-7.65 91-1.8Q91-0.85 91.42-0.43 91.85 0 92.8 0L92.8 0ZM101.55-31.5L112.65-31.5 112.65-31 101.55-31Q99.45-31 98.2-29.85 96.95-28.7 96.95-26.95L96.95-26.95 96.95-22.85Q96.95-21.1 97.65-20.4 98.35-19.7 99.5-19.5L99.5-19.5 110.05-17.35Q111.55-17.05 112.52-16.05 113.5-15.05 113.5-12.45L113.5-12.45 113.5-9.55Q113.5-7.35 112-5.93 110.5-4.5 107.95-4.5L107.95-4.5 95.5-4.5 95.5-5 107.95-5Q110.25-5 111.62-6.28 113-7.55 113-9.55L113-9.55 113-12.45Q113-14.8 112.17-15.68 111.35-16.55 109.95-16.85L109.95-16.85 99.4-19Q98.1-19.25 97.27-20.03 96.45-20.8 96.45-22.85L96.45-22.85 96.45-26.95Q96.45-28.95 97.85-30.23 99.25-31.5 101.55-31.5L101.55-31.5ZM139.39 5.95L123.59 5.95Q122.39 5.95 121.84 5.4 121.29 4.85 121.29 3.65L121.29 3.65 121.29-2.2Q121.29-2.85 121.47-3.3 121.64-3.75 121.99-4.05L121.99-4.05 126.99-8.25Q124.34-9.05 122.82-10.98 121.29-12.9 121.29-16.5L121.29-16.5 121.29-21.75Q121.29-24 122.04-25.75 122.79-27.5 124.19-28.7L124.19-28.7 130.69-34.15Q132.04-35.25 134.04-35.88 136.04-36.5 138.59-36.5L138.59-36.5 152.59-36.5Q153.79-36.5 154.34-35.95 154.89-35.4 154.89-34.2L154.89-34.2 154.89-28.25Q154.89-27.6 154.72-27.15 154.54-26.7 154.19-26.4L154.19-26.4 149.69-22.65Q152.84-21.95 154.77-20.03 156.69-18.1 156.69-14.05L156.69-14.05 156.69-8.8Q156.69-6.55 155.94-4.8 155.19-3.05 153.74-1.85L153.74-1.85 147.29 3.55Q145.89 4.7 143.89 5.33 141.89 5.95 139.39 5.95L139.39 5.95ZM130.04 0L145.84 0Q150.64 0 153.42-2.27 156.19-4.55 156.19-8.8L156.19-8.8 156.19-14.05Q156.19-18.25 154.04-20.05 151.89-21.85 148.39-22.35L148.39-22.35 140.94-23.35Q140.29-23.4 139.94-23.85 139.59-24.3 139.59-24.95L139.59-24.95Q139.59-25.6 139.94-26.03 140.29-26.45 140.94-26.45L140.94-26.45 152.59-26.45Q153.54-26.45 153.97-26.88 154.39-27.3 154.39-28.25L154.39-28.25 154.39-34.2Q154.39-35.15 153.97-35.58 153.54-36 152.59-36L152.59-36 138.59-36Q133.74-36 130.99-33.73 128.24-31.45 128.24-27.2L128.24-27.2 128.24-21.95Q128.24-17.75 130.37-15.95 132.49-14.15 135.99-13.65L135.99-13.65 143.49-12.6Q144.14-12.55 144.47-12.15 144.79-11.75 144.79-10.9L144.79-10.9Q144.79-10.3 144.47-9.88 144.14-9.45 143.49-9.45L143.49-9.45 130.04-9.45Q129.09-9.45 128.67-9.03 128.24-8.6 128.24-7.65L128.24-7.65 128.24-1.8Q128.24-0.85 128.67-0.43 129.09 0 130.04 0L130.04 0ZM138.79-31.5L149.89-31.5 149.89-31 138.79-31Q136.69-31 135.44-29.85 134.19-28.7 134.19-26.95L134.19-26.95 134.19-22.85Q134.19-21.1 134.89-20.4 135.59-19.7 136.74-19.5L136.74-19.5 147.29-17.35Q148.79-17.05 149.77-16.05 150.74-15.05 150.74-12.45L150.74-12.45 150.74-9.55Q150.74-7.35 149.24-5.93 147.74-4.5 145.19-4.5L145.19-4.5 132.74-4.5 132.74-5 145.19-5Q147.49-5 148.87-6.28 150.24-7.55 150.24-9.55L150.24-9.55 150.24-12.45Q150.24-14.8 149.42-15.68 148.59-16.55 147.19-16.85L147.19-16.85 136.64-19Q135.34-19.25 134.52-20.03 133.69-20.8 133.69-22.85L133.69-22.85 133.69-26.95Q133.69-28.95 135.09-30.23 136.49-31.5 138.79-31.5L138.79-31.5ZM172.54-4.5L172.04-4.5 172.04-31.5 172.54-31.5 172.54-18.25 191.74-18.25 191.74-31.5 192.24-31.5 192.24-4.5 191.74-4.5 191.74-17.75 172.54-17.75 172.54-4.5ZM168.44 0L176.19 0Q177.14 0 177.56-0.43 177.99-0.85 177.99-1.8L177.99-1.8 177.99-12.9 186.34-12.9 186.34-1.8Q186.34-0.85 186.76-0.43 187.19 0 188.14 0L188.14 0 195.89 0Q196.84 0 197.26-0.43 197.69-0.85 197.69-1.8L197.69-1.8 197.69-34.2Q197.69-35.15 197.26-35.58 196.84-36 195.89-36L195.89-36 188.14-36Q187.19-36 186.76-35.58 186.34-35.15 186.34-34.2L186.34-34.2 186.34-23.35 177.99-23.35 177.99-34.2Q177.99-35.15 177.56-35.58 177.14-36 176.19-36L176.19-36 168.44-36Q167.49-36 167.06-35.58 166.64-35.15 166.64-34.2L166.64-34.2 166.64-1.8Q166.64-0.85 167.06-0.43 167.49 0 168.44 0L168.44 0ZM177.79 0.05L177.79 0.05 171.29 5.45Q171.09 5.65 170.66 5.8 170.24 5.95 169.74 5.95L169.74 5.95 161.99 5.95Q160.79 5.95 160.24 5.4 159.69 4.85 159.69 3.65L159.69 3.65 159.69-28.75Q159.69-29.4 159.87-29.85 160.04-30.3 160.39-30.6L160.39-30.6 166.84-36.05Q167.09-36.25 167.51-36.38 167.94-36.5 168.44-36.5L168.44-36.5 176.19-36.5Q177.39-36.5 177.94-35.95 178.49-35.4 178.49-34.2L178.49-34.2 178.49-23.85 179.39-23.85 179.39-28.75Q179.39-29.4 179.56-29.85 179.74-30.3 180.09-30.6L180.09-30.6 186.54-36.05Q186.79-36.25 187.22-36.38 187.64-36.5 188.14-36.5L188.14-36.5 195.89-36.5Q197.09-36.5 197.64-35.95 198.19-35.4 198.19-34.2L198.19-34.2 198.19-1.8Q198.19-1.15 198.01-0.7 197.84-0.25 197.49 0.05L197.49 0.05 190.99 5.45Q190.79 5.65 190.37 5.8 189.94 5.95 189.44 5.95L189.44 5.95 181.69 5.95Q180.49 5.95 179.94 5.4 179.39 4.85 179.39 3.65L179.39 3.65 179.39-6.95 178.49-6.95 178.49-1.8Q178.49-1.15 178.31-0.7 178.14-0.25 177.79 0.05ZM214.64-15.15L214.64-15.15 214.64-13.6 234.14-13.6 234.14-15.15Q234.14-16.5 233.91-17.65 233.69-18.8 233.34-19.8L233.34-19.8 229.89-27.95Q229.34-29.25 228.74-30.13 228.14-31 226.74-31L226.74-31 221.84-31Q220.34-31 219.74-30.13 219.14-29.25 218.64-28L218.64-28 215.44-19.8Q215.09-18.8 214.86-17.65 214.64-16.5 214.64-15.15ZM220.29-17.9L222.64-25.5Q222.84-25.95 223.06-26.15 223.29-26.35 223.59-26.35L223.59-26.35 224.84-26.35Q225.14-26.35 225.36-26.15 225.59-25.95 225.79-25.5L225.79-25.5 228.14-17.9 220.29-17.9ZM234.64-4.5L234.14-4.5 234.14-13.1 214.64-13.1 214.64-4.5 214.14-4.5 214.14-15.15Q214.14-16.55 214.36-17.73 214.59-18.9 214.99-20L214.99-20 218.19-28.2Q218.74-29.6 219.44-30.55 220.14-31.5 221.84-31.5L221.84-31.5 226.74-31.5Q228.39-31.5 229.06-30.55 229.74-29.6 230.34-28.15L230.34-28.15 233.79-20Q234.19-18.9 234.41-17.73 234.64-16.55 234.64-15.15L234.64-15.15 234.64-4.5ZM219.79-1.8L219.79-1.8 219.79-8.8 228.64-8.8 228.64-1.8Q228.64-0.85 229.11-0.43 229.59 0 230.59 0L230.59 0 238.14 0Q239.09 0 239.51-0.43 239.94-0.85 239.94-1.8L239.94-1.8 239.94-15Q239.94-16.5 239.46-18.45 238.99-20.4 237.99-23L237.99-23 233.64-34.35Q233.34-35.2 232.71-35.6 232.09-36 231.14-36L231.14-36 217.69-36Q216.69-36 216.06-35.6 215.44-35.2 215.14-34.35L215.14-34.35 210.79-23Q209.79-20.4 209.31-18.45 208.84-16.5 208.84-15L208.84-15 208.84-1.8Q208.84-0.85 209.26-0.43 209.69 0 210.64 0L210.64 0 217.99 0Q218.94 0 219.36-0.43 219.79-0.85 219.79-1.8ZM219.59 0.05L213.09 5.45Q212.89 5.65 212.46 5.8 212.04 5.95 211.54 5.95L211.54 5.95 204.19 5.95Q202.99 5.95 202.44 5.4 201.89 4.85 201.89 3.65L201.89 3.65 201.89-9.55Q201.89-11.1 202.36-13.08 202.84-15.05 203.89-17.75L203.89-17.75 208.19-29.05Q208.34-29.5 208.56-29.83 208.79-30.15 209.04-30.4L209.04-30.4 209.09-30.45 215.49-35.8Q215.89-36.15 216.44-36.33 216.99-36.5 217.69-36.5L217.69-36.5 231.14-36.5Q232.29-36.5 233.01-36.02 233.74-35.55 234.09-34.55L234.09-34.55 238.44-23.2Q239.49-20.5 239.96-18.53 240.44-16.55 240.44-15L240.44-15 240.44-1.8Q240.44-1.15 240.26-0.7 240.09-0.25 239.74 0.05L239.74 0.05 233.24 5.45Q233.04 5.65 232.61 5.8 232.19 5.95 231.69 5.95L231.69 5.95 224.14 5.95Q222.89 5.95 222.29 5.38 221.69 4.8 221.69 3.65L221.69 3.65 221.69-2.85 220.29-2.85 220.29-1.8Q220.29-1.15 220.11-0.7 219.94-0.25 219.59 0.05L219.59 0.05Z" opacity="1" transform="matrix(1,0,0,1,0,0)" fill="#729343" class="undefined-text-0" data-fill-palette-color="primary" id="text-0"></path></svg></g></svg></g></svg></g></svg></g><g></g></svg></g></svg></g></svg></g></svg></g><defs></defs></svg><rect width="395.52" height="247.2" fill="none" stroke="none" visibility="hidden"></rect></g></svg></g></svg>